<svg width="10" height="13" viewBox="0 0 10 13" fill="none" xmlns="http://www.w3.org/2000/svg">
<g id="social-media">
<path id="Path" d="M7.46955 4.63708H2.31813C2.17595 4.63708 2.06055 4.75248 2.06055 4.89466V9.0158C2.06055 9.6381 2.50358 10.1579 3.09084 10.2779V11.5915C3.09084 12.0175 3.43752 12.3642 3.86355 12.3642C4.28958 12.3642 4.63626 12.0175 4.63626 11.5915V10.3037H5.15139V11.5915C5.15139 12.0175 5.49807 12.3642 5.9241 12.3642C6.35013 12.3642 6.69681 12.0175 6.69681 11.5915V10.2779C7.28407 10.1584 7.7271 9.6381 7.7271 9.0158V4.89466C7.7271 4.75198 7.61173 4.63708 7.46955 4.63708Z" fill="#282828"/>
<path id="Shape" fill-rule="evenodd" clip-rule="evenodd" d="M6.24193 1.37266L6.67619 0.359372C6.73233 0.228519 6.67156 0.0775984 6.5407 0.0214319C6.41139 -0.0352416 6.2584 0.0255611 6.20276 0.156922L5.7685 1.17072C5.49291 1.08108 5.19928 1.03112 4.8943 1.03112C4.58934 1.03112 4.29571 1.08108 4.02009 1.17072L3.58484 0.156922C3.52921 0.0255611 3.37621 -0.0357487 3.2469 0.0214319C3.11605 0.0775742 3.05577 0.229026 3.11194 0.359372L3.5462 1.37266C2.66172 1.85278 2.06055 2.78981 2.06055 3.86439C2.06055 4.00657 2.17595 4.12197 2.31813 4.12197H7.46953C7.6117 4.12197 7.7271 4.00657 7.7271 3.86439C7.72708 2.78981 7.12591 1.85278 6.24193 1.37266ZM3.86355 3.09168C3.72137 3.09168 3.60597 2.97628 3.60597 2.8341C3.60597 2.69192 3.72137 2.57652 3.86355 2.57652C4.00573 2.57652 4.12113 2.69192 4.12113 2.8341C4.12113 2.97628 4.00573 3.09168 3.86355 3.09168ZM5.66653 2.8341C5.66653 2.97628 5.78193 3.09168 5.92411 3.09168C6.06628 3.09168 6.18168 2.97628 6.18168 2.8341C6.18168 2.69192 6.06628 2.57652 5.92411 2.57652C5.78193 2.57652 5.66653 2.69192 5.66653 2.8341Z" fill="#282828"/>
<path id="Path_2" d="M9.01502 4.63708C8.58899 4.63708 8.24231 4.98377 8.24231 5.4098V7.98551C8.24231 8.41154 8.58899 8.75822 9.01502 8.75822C9.44105 8.75822 9.78773 8.41154 9.78773 7.98551V5.4098C9.78773 4.98379 9.44105 4.63708 9.01502 4.63708Z" fill="#282828"/>
<path id="Path_3" d="M0.772711 4.63708C0.346682 4.63708 0 4.98377 0 5.4098V7.98551C0 8.41154 0.346682 8.75822 0.772711 8.75822C1.19874 8.75822 1.54542 8.41154 1.54542 7.98551V5.4098C1.54542 4.98379 1.19874 4.63708 0.772711 4.63708Z" fill="#282828"/>
</g>
</svg>
