<svg width="12" height="12" viewBox="0 0 12 12" fill="none" xmlns="http://www.w3.org/2000/svg">
<path d="M8.36855 4.625H3.63166C3.50092 4.625 3.39481 4.72767 3.39481 4.85416V8.52058C3.39481 9.07421 3.80218 9.53663 4.34219 9.64342V10.8121C4.34219 11.1911 4.66097 11.4995 5.05272 11.4995C5.44447 11.4995 5.76325 11.1911 5.76325 10.8121V9.66635H6.23693V10.8121C6.23693 11.1911 6.55571 11.4995 6.94746 11.4995C7.33921 11.4995 7.65799 11.1911 7.65799 10.8121V9.64342C8.198 9.53711 8.60537 9.07421 8.60537 8.52058V4.85416C8.60537 4.72722 8.49928 4.625 8.36855 4.625Z" fill="white"/>
<path fill-rule="evenodd" clip-rule="evenodd" d="M7.23971 1.72121L7.63903 0.81972C7.69065 0.703304 7.63477 0.569036 7.51444 0.519067C7.39554 0.468647 7.25485 0.522741 7.2037 0.639608L6.80438 1.54155C6.55096 1.4618 6.28096 1.41735 6.00052 1.41735C5.72011 1.41735 5.45011 1.4618 5.19667 1.54155L4.79644 0.639608C4.74528 0.522741 4.6046 0.468196 4.48569 0.519067C4.36537 0.569015 4.30995 0.703756 4.36159 0.81972L4.76091 1.72121C3.9476 2.14835 3.39481 2.98199 3.39481 3.938C3.39481 4.0645 3.50092 4.16716 3.63166 4.16716H8.36852C8.49926 4.16716 8.60537 4.0645 8.60537 3.938C8.60535 2.98199 8.05256 2.14835 7.23971 1.72121ZM5.05259 3.25031C4.92185 3.25031 4.81573 3.14764 4.81573 3.02115C4.81573 2.89466 4.92185 2.79199 5.05259 2.79199C5.18332 2.79199 5.28944 2.89466 5.28944 3.02115C5.28944 3.14764 5.18332 3.25031 5.05259 3.25031ZM6.71053 3.02115C6.71053 3.14764 6.81665 3.25031 6.94738 3.25031C7.07812 3.25031 7.18423 3.14764 7.18423 3.02115C7.18423 2.89466 7.07812 2.79199 6.94738 2.79199C6.81665 2.79199 6.71053 2.89466 6.71053 3.02115Z" fill="white"/>
<path d="M9.78948 4.625C9.39773 4.625 9.07895 4.93343 9.07895 5.31245V7.60397C9.07895 7.98299 9.39773 8.29142 9.78948 8.29142C10.1812 8.29142 10.5 7.98299 10.5 7.60397V5.31245C10.5 4.93345 10.1812 4.625 9.78948 4.625Z" fill="white"/>
<path d="M2.21053 4.625C1.81878 4.625 1.5 4.93343 1.5 5.31245V7.60397C1.5 7.98299 1.81878 8.29142 2.21053 8.29142C2.60228 8.29142 2.92106 7.98299 2.92106 7.60397V5.31245C2.92106 4.93345 2.60228 4.625 2.21053 4.625Z" fill="white"/>
</svg>
