<svg width="12" height="12" viewBox="0 0 12 12" fill="none" xmlns="http://www.w3.org/2000/svg">
<mask id="mask0_1206_2655" style="mask-type:alpha" maskUnits="userSpaceOnUse" x="0" y="0" width="12" height="12">
<rect width="12" height="12" fill="#C4C4C4"/>
</mask>
<g mask="url(#mask0_1206_2655)">
<path d="M4.65299 11C3.20101 10.9913 2 7.95314 2 6.40601C2 3.87856 3.84917 3.32529 4.56194 3.32529C4.88319 3.32529 5.22613 3.45442 5.52898 3.56904C5.74031 3.64884 5.95872 3.73105 6.0809 3.73105C6.15355 3.73105 6.32525 3.66141 6.47668 3.59951C6.79981 3.46796 7.20172 3.30401 7.67015 3.30401H7.67298C8.02253 3.30401 9.08296 3.38236 9.72027 4.36364L9.86933 4.59385L9.6547 4.76022C9.3476 4.99719 8.78766 5.43053 8.78766 6.28849C8.78766 7.30507 9.42166 7.69585 9.7264 7.88398C9.86084 7.96668 10 8.05228 10 8.23944C10 8.36132 9.04947 10.985 7.66826 10.985C7.33003 10.985 7.09134 10.8805 6.88048 10.7887C6.66726 10.6958 6.48376 10.6155 6.17949 10.6155C6.02571 10.6155 5.83041 10.6905 5.62474 10.7698C5.34265 10.8776 5.02376 11 4.66195 11H4.65251H4.65299ZM7.81685 1C7.8527 2.32998 6.92529 3.25226 5.99882 3.19423C5.84645 2.13314 6.92529 1 7.81685 1Z" fill="white"/>
</g>
</svg>
