<svg width="11" height="13" viewBox="0 0 11 13" fill="none" xmlns="http://www.w3.org/2000/svg">
<path fill-rule="evenodd" clip-rule="evenodd" d="M7.49511 0C7.57439 0.723907 7.28379 1.45146 6.85203 1.97409C6.42025 2.49705 5.71159 2.90322 5.01791 2.84956C4.92338 2.13998 5.27374 1.39962 5.6738 0.937061C6.1202 0.414718 6.87276 0.025013 7.49511 0ZM10.0647 9.06914C9.98988 9.03884 8.42497 8.40506 8.40792 6.56857C8.39417 5.0367 9.6326 4.28386 9.73889 4.21924C9.74114 4.21787 9.74288 4.21681 9.74409 4.21606C9.01747 3.15248 7.88589 3.00642 7.48276 2.98964C6.89376 2.92995 6.32232 3.15535 5.85568 3.33942C5.55941 3.45629 5.30538 3.55649 5.11592 3.55649C4.90452 3.55649 4.64333 3.45289 4.35027 3.33666C3.96653 3.18446 3.52815 3.01058 3.07536 3.01922C2.0255 3.03448 1.05826 3.62939 0.517019 4.56885C-0.572485 6.46064 0.238914 9.26322 1.30067 10.7982C1.82027 11.5487 2.43956 12.3939 3.25281 12.3631C3.61675 12.3488 3.87546 12.2386 4.14296 12.1247C4.45147 11.9933 4.77167 11.8569 5.27845 11.8569C5.7626 11.8569 6.06875 11.9894 6.36313 12.1167C6.64424 12.2384 6.91462 12.3553 7.31901 12.3479C8.16154 12.3323 8.69638 11.5819 9.2117 10.8287C9.78868 9.98553 10.0374 9.16835 10.0653 9.0769C10.0662 9.07386 10.0669 9.07163 10.0673 9.07022C10.067 9.07007 10.0661 9.06971 10.0647 9.06914Z" fill="#282828"/>
</svg>
