<svg width="24" height="24" viewBox="0 0 24 24" fill="none" xmlns="http://www.w3.org/2000/svg">
<circle cx="12.6709" cy="12.6986" r="2.85714" fill="white"/>
<path fill-rule="evenodd" clip-rule="evenodd" d="M4.89907 20.1271H20.4413C21.5139 20.1268 22.3836 19.2749 22.3851 18.2232V6.79399C22.384 5.74185 21.5141 4.88934 20.4409 4.8888H17.3619L15.5844 2.98425H9.75654L7.97875 4.8888H4.89907C3.82659 4.89023 2.95764 5.74248 2.95654 6.79399V18.2232C2.95801 19.2744 3.82696 20.126 4.89907 20.1271ZM7.81335 12.5081C7.81335 9.87825 9.98758 7.74628 12.6698 7.7461L12.6705 7.74578C15.3516 7.74919 17.524 9.87959 17.527 12.5083C17.5268 15.1381 15.3523 17.2698 12.6701 17.2698C9.9878 17.2698 7.81335 15.1379 7.81335 12.5081Z" fill="white"/>
</svg>
