<svg width="10" height="10" viewBox="0 0 10 10" fill="none" xmlns="http://www.w3.org/2000/svg">
<path d="M7.54994 7.761C8.90321 6.35108 8.85548 4.11283 7.44332 2.76171C6.03116 1.41059 3.78935 1.45826 2.43609 2.86816C1.1234 4.23582 1.1234 6.39335 2.43609 7.761L1.51594 8.98569C1.40927 9.12772 1.43809 9.32919 1.58033 9.43569C1.72256 9.5422 1.92437 9.51342 2.03105 9.37141L2.92286 8.18402C4.15658 9.0815 5.82943 9.0815 7.06313 8.18402L7.95494 9.37141C8.06161 9.51344 8.26342 9.54222 8.40566 9.43569C8.54792 9.32919 8.57674 9.1277 8.47004 8.98569L7.54994 7.761ZM5.31498 5.32128C5.31498 5.39083 5.29238 5.4585 5.2506 5.51414L4.28474 6.79991C4.17807 6.94194 3.97626 6.97071 3.83402 6.86419C3.69178 6.75766 3.66294 6.55619 3.76964 6.41418L4.6711 5.21424V3.39264C4.6711 3.21511 4.81525 3.0712 4.99306 3.0712C5.17087 3.0712 5.31502 3.21511 5.31502 3.39264V5.32128H5.31498Z" fill="white"/>
<path d="M3.23358 0.970603C2.59706 0.350915 1.57792 0.363741 0.957232 0.99925C0.347652 1.6234 0.347577 2.61895 0.957081 3.24319C1.08281 3.36869 1.2866 3.36869 1.41231 3.24319L3.23358 1.42513C3.35927 1.2996 3.35927 1.09613 3.23358 0.970603Z" fill="white"/>
<path d="M9.02865 0.970571C8.40004 0.343143 7.38107 0.343143 6.75247 0.970571C6.62678 1.0961 6.62678 1.29957 6.75247 1.42508L8.57342 3.24314C8.69915 3.36863 8.90294 3.36863 9.02865 3.24314C9.65708 2.61554 9.65708 1.59819 9.02865 0.970571Z" fill="white"/>
</svg>
