<svg width="14" height="14" viewBox="0 0 14 14" fill="none" xmlns="http://www.w3.org/2000/svg">
<path fill-rule="evenodd" clip-rule="evenodd" d="M11.7166 2.28389C9.11533 -0.316838 4.88502 -0.316838 2.2838 2.28389C-0.316876 4.88462 -0.316876 9.11614 2.2838 11.7168C3.58441 13.0169 5.29185 13.6667 6.99989 13.6667C8.70793 13.6667 10.4159 13.0169 11.7166 11.7168C14.3167 9.11612 14.3167 4.88462 11.7166 2.28389ZM4.24918 9.75143C4.03186 9.53411 4.03186 9.18282 4.24918 8.9655L6.21403 7.00008L4.24923 5.03524C4.03191 4.81792 4.03191 4.46608 4.24923 4.24931C4.46654 4.03199 4.81783 4.03199 5.03514 4.24931L6.99994 6.21415L8.96475 4.24931C9.18206 4.03199 9.53389 4.03199 9.75066 4.24931C9.96798 4.46608 9.96798 4.81792 9.75066 5.03524L7.78586 7.00008L9.75011 8.96492C9.96743 9.1817 9.96743 9.53354 9.75011 9.75086C9.64173 9.85924 9.49942 9.91372 9.35714 9.91372C9.21541 9.91372 9.0731 9.85924 8.96417 9.75086L6.99992 7.78601L5.03512 9.75143C4.92673 9.85981 4.78443 9.9143 4.64215 9.9143C4.49984 9.9143 4.35756 9.85981 4.24918 9.75143Z" fill="#8F8F8F"/>
</svg>
