<svg width="144" height="137" viewBox="0 0 144 137" fill="none" xmlns="http://www.w3.org/2000/svg">
<path d="M68.4297 0C30.6907 0 0 30.7222 0 68.5C0 106.278 30.6907 137 68.4297 137C106.169 137 136.859 106.278 136.859 68.5C136.859 30.7222 106.169 0 68.4297 0Z" fill="url(#paint0_linear_691_3158)"/>
<mask id="mask0_691_3158" style="mask-type:alpha" maskUnits="userSpaceOnUse" x="0" y="0" width="137" height="137">
<path d="M68.4297 0C30.6907 0 0 30.7222 0 68.5C0 106.278 30.6907 137 68.4297 137C106.169 137 136.859 106.278 136.859 68.5C136.859 30.7222 106.169 0 68.4297 0Z" fill="url(#paint1_linear_691_3158)"/>
</mask>
<g mask="url(#mask0_691_3158)">
<path d="M38.0828 90.5391C20.4696 89.586 14.4795 97.8854 7.14062 103.048C56.5291 170.952 133.289 134.022 139.24 70.2869C140.886 52.6538 89.8514 56.5869 82.7109 76.2434C78.0693 89.0209 60.0993 91.7304 38.0828 90.5391Z" fill="white" fill-opacity="0.7"/>
</g>
<path fill-rule="evenodd" clip-rule="evenodd" d="M42.7487 95.0198C45.2543 97.528 49.3167 97.528 51.8224 95.0198L68.2184 78.607L85.2314 95.6375C87.7371 98.1457 91.7995 98.1457 94.3051 95.6375C96.8108 93.1293 96.8108 89.0627 94.3051 86.5545L77.2921 69.5239L94.9226 51.8753C97.4283 49.3671 97.4283 45.3005 94.9226 42.7923C92.417 40.2841 88.3545 40.2841 85.8489 42.7923L68.2184 60.4409L51.2049 43.41C48.6993 40.9018 44.6368 40.9018 42.1312 43.41C39.6255 45.9182 39.6255 49.9848 42.1312 52.493L59.1446 69.5239L42.7487 85.9368C40.243 88.445 40.243 92.5116 42.7487 95.0198Z" fill="url(#paint2_linear_691_3158)"/>
<rect y="13.1042" width="42.843" height="11.913" rx="5.95652" fill="#FCD787"/>
<rect x="24.9917" y="29.7827" width="26.1818" height="7.14783" rx="3.57391" fill="#FFABB5"/>
<rect x="101.157" y="88.1565" width="42.843" height="11.913" rx="5.95652" fill="#FCD787"/>
<rect x="90.4463" y="104.835" width="26.1818" height="7.14783" rx="3.57391" fill="#FFABB5"/>
<defs>
<linearGradient id="paint0_linear_691_3158" x1="0" y1="0" x2="137" y2="136.859" gradientUnits="userSpaceOnUse">
<stop offset="0.116667" stop-color="#F8FDFF"/>
<stop offset="0.377083" stop-color="#FFFAEF"/>
<stop offset="0.814583" stop-color="#FFDADE"/>
</linearGradient>
<linearGradient id="paint1_linear_691_3158" x1="0" y1="0" x2="137" y2="136.859" gradientUnits="userSpaceOnUse">
<stop offset="0.116667" stop-color="#FFFEFB"/>
<stop offset="0.377083" stop-color="#FFFAEF"/>
<stop offset="0.814583" stop-color="#FFDADE"/>
</linearGradient>
<linearGradient id="paint2_linear_691_3158" x1="40.4632" y1="40.5045" x2="96.4557" y2="97.6299" gradientUnits="userSpaceOnUse">
<stop offset="0.1125" stop-color="#FF7C8B"/>
<stop offset="0.648958" stop-color="#F63F54"/>
<stop offset="1" stop-color="#D12236"/>
</linearGradient>
</defs>
</svg>
