<svg width="44" height="44" viewBox="0 0 44 44" fill="none" xmlns="http://www.w3.org/2000/svg">
<g filter="url(#filter0_d_101_1198)">
<path d="M10.1658 42.001C4.55138 42.001 0 37.5238 0 32.001V10.001C0 4.47813 4.55138 0.000974655 10.1658 0.000974655L42 0L22.5585 42.001H10.1658Z" fill="black"/>
</g>
<path d="M10.1658 42.001C4.55138 42.001 0 37.5238 0 32.001V10.001C0 4.47813 4.55138 0.000974655 10.1658 0.000974655L42 0L22.5585 42.001H10.1658Z" fill="url(#paint0_linear_101_1198)"/>
<path d="M14.0469 25H11.3662L12.9482 17.7139C13.1533 16.8232 13.376 15.9824 13.6162 15.1914C13.5635 15.2383 13.3818 15.376 13.0713 15.6045C12.7666 15.833 11.999 16.3311 10.7686 17.0986L9.59961 15.209L14.5742 12.1504H16.7627L14.0469 25Z" fill="white"/>
<path d="M22.2383 15.5586C22.2383 16.0482 22.0755 16.4245 21.75 16.6875C21.4271 16.9479 20.9766 17.0781 20.3984 17.0781C20.1198 17.0781 19.8763 17.0586 19.668 17.0195C19.4622 16.9805 19.2695 16.9154 19.0898 16.8242V15.8555C19.4987 16.0898 19.9141 16.207 20.3359 16.207C20.5443 16.207 20.7148 16.1654 20.8477 16.082C20.9805 15.9961 21.0469 15.8802 21.0469 15.7344C21.0469 15.6224 20.9987 15.5221 20.9023 15.4336C20.806 15.3451 20.6354 15.2331 20.3906 15.0977C20.0755 14.9206 19.8555 14.7448 19.7305 14.5703C19.6055 14.3932 19.543 14.1849 19.543 13.9453C19.543 13.5026 19.6862 13.1602 19.9727 12.918C20.2617 12.6732 20.6732 12.5508 21.207 12.5508C21.7305 12.5508 22.2031 12.6745 22.625 12.9219L22.2383 13.7617C21.8737 13.543 21.5378 13.4336 21.2305 13.4336C21.082 13.4336 20.9622 13.4674 20.8711 13.5352C20.7799 13.6003 20.7344 13.6888 20.7344 13.8008C20.7344 13.9023 20.776 13.9922 20.8594 14.0703C20.9427 14.1458 21.099 14.2422 21.3281 14.3594C21.6484 14.5234 21.8802 14.7018 22.0234 14.8945C22.1667 15.0872 22.2383 15.3086 22.2383 15.5586ZM24.7969 16.1289C24.9661 16.1289 25.1771 16.0833 25.4297 15.9922V16.8711C25.1406 17.0091 24.7943 17.0781 24.3906 17.0781C24 17.0781 23.7122 16.9961 23.5273 16.832C23.3451 16.668 23.2539 16.4141 23.2539 16.0703C23.2539 15.9401 23.2695 15.7943 23.3008 15.6328L23.75 13.5273H23.1562L23.2695 12.9531L24.0352 12.625L24.5508 11.7031H25.3086L25.1172 12.6328H26.2227L26.0273 13.5273H24.9258L24.4766 15.6328C24.4609 15.7109 24.4531 15.7799 24.4531 15.8398C24.4531 16.0326 24.5677 16.1289 24.7969 16.1289Z" fill="white"/>
<defs>
<filter id="filter0_d_101_1198" x="0" y="0" width="44" height="44.001" filterUnits="userSpaceOnUse" color-interpolation-filters="sRGB">
<feFlood flood-opacity="0" result="BackgroundImageFix"/>
<feColorMatrix in="SourceAlpha" type="matrix" values="0 0 0 0 0 0 0 0 0 0 0 0 0 0 0 0 0 0 127 0" result="hardAlpha"/>
<feOffset dx="1" dy="1"/>
<feGaussianBlur stdDeviation="0.5"/>
<feColorMatrix type="matrix" values="0 0 0 0 0 0 0 0 0 0 0 0 0 0 0 0 0 0 0.5 0"/>
<feBlend mode="normal" in2="BackgroundImageFix" result="effect1_dropShadow_101_1198"/>
<feBlend mode="normal" in="SourceGraphic" in2="effect1_dropShadow_101_1198" result="shape"/>
</filter>
<linearGradient id="paint0_linear_101_1198" x1="8.48232" y1="5.09693" x2="34.9537" y2="42.0004" gradientUnits="userSpaceOnUse">
<stop stop-color="#FA262F"/>
<stop offset="1" stop-color="#700415"/>
</linearGradient>
</defs>
</svg>
