<svg width="10" height="10" viewBox="0 0 10 10" fill="none" xmlns="http://www.w3.org/2000/svg">
<path fill-rule="evenodd" clip-rule="evenodd" d="M5 0C6.33555 0 7.59115 0.520098 8.53553 1.46447C9.4799 2.40885 10 3.66445 10 5C10 6.33555 9.47994 7.59119 8.53555 8.53555C7.59115 9.4799 6.33557 10 5 10C3.66443 10 2.40881 9.4799 1.46445 8.53553C0.520098 7.59115 0 6.33553 0 5C0 3.66447 0.520098 2.40885 1.46445 1.46447C2.40883 0.520098 3.66445 0 5 0ZM5 9.41416C6.17906 9.41416 7.28758 8.95502 8.12129 8.12129C8.955 7.28758 9.41418 6.17908 9.41418 5.00002C9.41418 3.82096 8.95502 2.71246 8.12129 1.87871C7.28756 1.04498 6.17906 0.58584 5 0.58584C3.82094 0.58584 2.71242 1.04498 1.87871 1.87873C1.045 2.71244 0.58582 3.82092 0.58582 5C0.58582 6.17908 1.045 7.28758 1.87871 8.12129C2.71244 8.95502 3.82094 9.41416 5 9.41416Z" fill="white"/>
<path d="M5.00004 1.75232C4.38434 1.75232 3.88342 2.25322 3.88342 2.86894C3.88342 3.48466 4.38432 3.98556 5.00004 3.98556C5.61577 3.98556 6.11667 3.48466 6.11667 2.86894C6.11667 2.25322 5.61575 1.75232 5.00004 1.75232Z" fill="white"/>
<path d="M5.00004 4.51184C4.38434 4.51184 3.88342 5.01274 3.88342 5.62846V7.10583C3.88342 7.72153 4.38432 8.22245 5.00004 8.22245C5.61577 8.22245 6.11667 7.72155 6.11667 7.10583V5.62846C6.11665 5.01274 5.61575 4.51184 5.00004 4.51184Z" fill="white"/>
</svg>
