<svg width="72" height="20" viewBox="0 0 72 20" fill="none" xmlns="http://www.w3.org/2000/svg">
<rect width="72" height="20" rx="10" fill="url(#paint0_linear_101_505)"/>
<path d="M23.1367 15L21.7617 10.5195H21.7266C21.776 11.431 21.8008 12.0391 21.8008 12.3438V15H20.7188V9.28906H22.3672L23.7188 13.6562H23.7422L25.1758 9.28906H26.8242V15H25.6953V12.2969C25.6953 12.1693 25.6966 12.0221 25.6992 11.8555C25.7044 11.6888 25.7227 11.2461 25.7539 10.5273H25.7188L24.2461 15H23.1367ZM29.1211 12.8086C29.1211 13.2409 29.1914 13.5677 29.332 13.7891C29.4753 14.0104 29.707 14.1211 30.0273 14.1211C30.3451 14.1211 30.5729 14.0117 30.7109 13.793C30.8516 13.5716 30.9219 13.2435 30.9219 12.8086C30.9219 12.3763 30.8516 12.0521 30.7109 11.8359C30.5703 11.6198 30.3398 11.5117 30.0195 11.5117C29.7018 11.5117 29.4727 11.6198 29.332 11.8359C29.1914 12.0495 29.1211 12.3737 29.1211 12.8086ZM32.1406 12.8086C32.1406 13.5195 31.9531 14.0755 31.5781 14.4766C31.2031 14.8776 30.681 15.0781 30.0117 15.0781C29.5924 15.0781 29.2227 14.987 28.9023 14.8047C28.582 14.6198 28.3359 14.3555 28.1641 14.0117C27.9922 13.668 27.9062 13.2669 27.9062 12.8086C27.9062 12.0951 28.0924 11.5404 28.4648 11.1445C28.8372 10.7487 29.3607 10.5508 30.0352 10.5508C30.4544 10.5508 30.8242 10.6419 31.1445 10.8242C31.4648 11.0065 31.7109 11.2682 31.8828 11.6094C32.0547 11.9505 32.1406 12.3503 32.1406 12.8086ZM34.9648 14.1289C35.1732 14.1289 35.4232 14.0833 35.7148 13.9922V14.8789C35.418 15.0117 35.0534 15.0781 34.6211 15.0781C34.1445 15.0781 33.7969 14.9583 33.5781 14.7188C33.362 14.4766 33.2539 14.1146 33.2539 13.6328V11.5273H32.6836V11.0234L33.3398 10.625L33.6836 9.70312H34.4453V10.6328H35.668V11.5273H34.4453V13.6328C34.4453 13.8021 34.4922 13.9271 34.5859 14.0078C34.6823 14.0885 34.8086 14.1289 34.9648 14.1289ZM36.5508 9.50391C36.5508 9.11589 36.7669 8.92188 37.1992 8.92188C37.6315 8.92188 37.8477 9.11589 37.8477 9.50391C37.8477 9.6888 37.793 9.83333 37.6836 9.9375C37.5768 10.0391 37.4154 10.0898 37.1992 10.0898C36.7669 10.0898 36.5508 9.89453 36.5508 9.50391ZM37.793 15H36.6016V10.6328H37.793V15ZM39.9961 12.8086C39.9961 13.2409 40.0664 13.5677 40.207 13.7891C40.3503 14.0104 40.582 14.1211 40.9023 14.1211C41.2201 14.1211 41.4479 14.0117 41.5859 13.793C41.7266 13.5716 41.7969 13.2435 41.7969 12.8086C41.7969 12.3763 41.7266 12.0521 41.5859 11.8359C41.4453 11.6198 41.2148 11.5117 40.8945 11.5117C40.5768 11.5117 40.3477 11.6198 40.207 11.8359C40.0664 12.0495 39.9961 12.3737 39.9961 12.8086ZM43.0156 12.8086C43.0156 13.5195 42.8281 14.0755 42.4531 14.4766C42.0781 14.8776 41.556 15.0781 40.8867 15.0781C40.4674 15.0781 40.0977 14.987 39.7773 14.8047C39.457 14.6198 39.2109 14.3555 39.0391 14.0117C38.8672 13.668 38.7812 13.2669 38.7812 12.8086C38.7812 12.0951 38.9674 11.5404 39.3398 11.1445C39.7122 10.7487 40.2357 10.5508 40.9102 10.5508C41.3294 10.5508 41.6992 10.6419 42.0195 10.8242C42.3398 11.0065 42.5859 11.2682 42.7578 11.6094C42.9297 11.9505 43.0156 12.3503 43.0156 12.8086ZM48.0312 15H46.8398V12.4492C46.8398 12.1341 46.7839 11.8984 46.6719 11.7422C46.5599 11.5833 46.3815 11.5039 46.1367 11.5039C45.8034 11.5039 45.5625 11.6159 45.4141 11.8398C45.2656 12.0612 45.1914 12.4297 45.1914 12.9453V15H44V10.6328H44.9102L45.0703 11.1914H45.1367C45.2695 10.9805 45.4518 10.8216 45.6836 10.7148C45.918 10.6055 46.1836 10.5508 46.4805 10.5508C46.9883 10.5508 47.3737 10.6888 47.6367 10.9648C47.8997 11.2383 48.0312 11.6341 48.0312 12.1523V15ZM50.5625 11.9766H50.9609C51.3333 11.9766 51.612 11.9036 51.7969 11.7578C51.9818 11.6094 52.0742 11.3945 52.0742 11.1133C52.0742 10.8294 51.9961 10.6198 51.8398 10.4844C51.6862 10.349 51.444 10.2812 51.1133 10.2812H50.5625V11.9766ZM53.2969 11.0703C53.2969 11.6849 53.1042 12.1549 52.7188 12.4805C52.3359 12.806 51.7904 12.9688 51.082 12.9688H50.5625V15H49.3516V9.28906H51.1758C51.8685 9.28906 52.3945 9.4388 52.7539 9.73828C53.1159 10.0352 53.2969 10.4792 53.2969 11.0703ZM57.0547 15L56.8242 14.4062H56.793C56.5924 14.6589 56.3854 14.8346 56.1719 14.9336C55.9609 15.0299 55.6849 15.0781 55.3438 15.0781C54.9245 15.0781 54.5938 14.9583 54.3516 14.7188C54.112 14.4792 53.9922 14.138 53.9922 13.6953C53.9922 13.2318 54.1536 12.8906 54.4766 12.6719C54.8021 12.4505 55.2917 12.3281 55.9453 12.3047L56.7031 12.2812V12.0898C56.7031 11.6471 56.4766 11.4258 56.0234 11.4258C55.6745 11.4258 55.2643 11.5312 54.793 11.7422L54.3984 10.9375C54.901 10.6745 55.4583 10.543 56.0703 10.543C56.6562 10.543 57.1055 10.6706 57.418 10.9258C57.7305 11.181 57.8867 11.569 57.8867 12.0898V15H57.0547ZM56.7031 12.9766L56.2422 12.9922C55.8958 13.0026 55.638 13.0651 55.4688 13.1797C55.2995 13.2943 55.2148 13.4688 55.2148 13.7031C55.2148 14.0391 55.4076 14.207 55.793 14.207C56.069 14.207 56.2891 14.1276 56.4531 13.9688C56.6198 13.8099 56.7031 13.599 56.7031 13.3359V12.9766ZM58.4922 10.6328H59.7969L60.6211 13.0898C60.6914 13.3034 60.7396 13.556 60.7656 13.8477H60.7891C60.8177 13.5794 60.8737 13.3268 60.957 13.0898L61.7656 10.6328H63.043L61.1953 15.5586C61.026 16.0143 60.7839 16.3555 60.4688 16.582C60.1562 16.8086 59.7904 16.9219 59.3711 16.9219C59.1654 16.9219 58.9635 16.8997 58.7656 16.8555V15.9102C58.9089 15.944 59.0651 15.9609 59.2344 15.9609C59.4453 15.9609 59.6289 15.8958 59.7852 15.7656C59.944 15.638 60.0677 15.444 60.1562 15.1836L60.2266 14.9688L58.4922 10.6328Z" fill="white"/>
<path d="M22.2031 4.97656C22.2031 5.26562 22.1042 5.48828 21.9062 5.64453C21.7096 5.79948 21.4277 5.87695 21.0605 5.87695H20.7246V7H20.3926V4.14453H21.1328C21.8464 4.14453 22.2031 4.42188 22.2031 4.97656ZM20.7246 5.5918H21.0234C21.3177 5.5918 21.5306 5.54427 21.6621 5.44922C21.7936 5.35417 21.8594 5.20182 21.8594 4.99219C21.8594 4.80339 21.7975 4.66276 21.6738 4.57031C21.5501 4.47786 21.3574 4.43164 21.0957 4.43164H20.7246V5.5918ZM24.0703 7L24.0059 6.69531H23.9902C23.8835 6.82943 23.7767 6.92057 23.6699 6.96875C23.5645 7.01562 23.4323 7.03906 23.2734 7.03906C23.0612 7.03906 22.8945 6.98438 22.7734 6.875C22.6536 6.76562 22.5938 6.61003 22.5938 6.4082C22.5938 5.97591 22.9395 5.74935 23.6309 5.72852L23.9941 5.7168V5.58398C23.9941 5.41602 23.9577 5.29232 23.8848 5.21289C23.8132 5.13216 23.6979 5.0918 23.5391 5.0918C23.3607 5.0918 23.1589 5.14648 22.9336 5.25586L22.834 5.00781C22.9395 4.95052 23.0547 4.9056 23.1797 4.87305C23.306 4.84049 23.4323 4.82422 23.5586 4.82422C23.8138 4.82422 24.0026 4.88086 24.125 4.99414C24.2487 5.10742 24.3105 5.28906 24.3105 5.53906V7H24.0703ZM23.3379 6.77148C23.5397 6.77148 23.6979 6.71615 23.8125 6.60547C23.9284 6.49479 23.9863 6.33984 23.9863 6.14062V5.94727L23.6621 5.96094C23.4043 5.97005 23.2181 6.01042 23.1035 6.08203C22.9902 6.15234 22.9336 6.26237 22.9336 6.41211C22.9336 6.5293 22.9688 6.61849 23.0391 6.67969C23.1107 6.74089 23.2103 6.77148 23.3379 6.77148ZM24.6406 4.85938H24.9883L25.457 6.08008C25.5599 6.35872 25.6237 6.5599 25.6484 6.68359H25.6641C25.681 6.61719 25.7161 6.50391 25.7695 6.34375C25.8242 6.18229 26.0013 5.6875 26.3008 4.85938H26.6484L25.7285 7.29688C25.6374 7.53776 25.5306 7.70833 25.4082 7.80859C25.2871 7.91016 25.138 7.96094 24.9609 7.96094C24.862 7.96094 24.7643 7.94987 24.668 7.92773V7.66797C24.7396 7.68359 24.8197 7.69141 24.9082 7.69141C25.1309 7.69141 25.2897 7.56641 25.3848 7.31641L25.5039 7.01172L24.6406 4.85938ZM29.7832 7L29.3906 5.74414C29.3659 5.66732 29.3197 5.49284 29.252 5.2207H29.2363C29.1842 5.44857 29.1387 5.62435 29.0996 5.74805L28.6953 7H28.3203L27.7363 4.85938H28.0762C28.2142 5.39714 28.319 5.80664 28.3906 6.08789C28.4635 6.36914 28.5052 6.55859 28.5156 6.65625H28.5312C28.5456 6.58203 28.5684 6.48633 28.5996 6.36914C28.6322 6.25065 28.6602 6.1569 28.6836 6.08789L29.0762 4.85938H29.4277L29.8105 6.08789C29.8835 6.31185 29.9329 6.5 29.959 6.65234H29.9746C29.9798 6.60547 29.9935 6.5332 30.0156 6.43555C30.0391 6.33789 30.1751 5.8125 30.4238 4.85938H30.7598L30.168 7H29.7832ZM31.4727 7H31.1484V4.85938H31.4727V7ZM31.1211 4.2793C31.1211 4.20508 31.1393 4.15104 31.1758 4.11719C31.2122 4.08203 31.2578 4.06445 31.3125 4.06445C31.3646 4.06445 31.4095 4.08203 31.4473 4.11719C31.485 4.15234 31.5039 4.20638 31.5039 4.2793C31.5039 4.35221 31.485 4.4069 31.4473 4.44336C31.4095 4.47852 31.3646 4.49609 31.3125 4.49609C31.2578 4.49609 31.2122 4.47852 31.1758 4.44336C31.1393 4.4069 31.1211 4.35221 31.1211 4.2793ZM32.8516 6.77148C32.9089 6.77148 32.9642 6.76758 33.0176 6.75977C33.071 6.75065 33.1133 6.74154 33.1445 6.73242V6.98047C33.1094 6.9974 33.0573 7.01107 32.9883 7.02148C32.9206 7.0332 32.8594 7.03906 32.8047 7.03906C32.3906 7.03906 32.1836 6.82096 32.1836 6.38477V5.11133H31.877V4.95508L32.1836 4.82031L32.3203 4.36328H32.5078V4.85938H33.1289V5.11133H32.5078V6.37109C32.5078 6.5 32.5384 6.59896 32.5996 6.66797C32.6608 6.73698 32.7448 6.77148 32.8516 6.77148ZM35.0391 7V5.61523C35.0391 5.44076 34.9993 5.31055 34.9199 5.22461C34.8405 5.13867 34.7161 5.0957 34.5469 5.0957C34.3216 5.0957 34.1569 5.1569 34.0527 5.2793C33.9499 5.40169 33.8984 5.60221 33.8984 5.88086V7H33.5742V3.96094H33.8984V4.88086C33.8984 4.99154 33.8932 5.08333 33.8828 5.15625H33.9023C33.9661 5.05339 34.0566 4.97266 34.1738 4.91406C34.2923 4.85417 34.4271 4.82422 34.5781 4.82422C34.8398 4.82422 35.0358 4.88672 35.166 5.01172C35.2975 5.13542 35.3633 5.33268 35.3633 5.60352V7H35.0391Z" fill="white"/>
<circle cx="9.99999" cy="9.99999" r="7.99999" fill="url(#paint1_linear_101_505)"/>
<circle cx="9.82795" cy="9.99995" r="7.82795" fill="url(#paint2_linear_101_505)"/>
<circle cx="10.0002" cy="10.0001" r="6.45161" fill="#D8D8D8"/>
<circle cx="10.1721" cy="10.0001" r="6.27956" fill="url(#paint3_linear_101_505)"/>
<path d="M12.4321 8.27861L8.22047 5.15771V8.44108C9.2296 9.10984 9.40857 9.58213 9.42761 9.80128C9.43904 9.8844 9.45046 10.0166 9.42381 10.1111C9.38573 10.3454 9.17248 10.7988 8.22047 11.4335V14.7169L12.4321 11.596C12.4321 11.596 13.5974 10.7194 13.6545 9.9373C13.6012 9.15896 12.4321 8.27861 12.4321 8.27861Z" fill="url(#paint4_linear_101_505)"/>
<path d="M11.8414 8.27861L7.62971 5.15771V8.44108C8.63884 9.10984 8.81781 9.58213 8.83685 9.80128C8.84828 9.8844 8.8597 10.0166 8.83305 10.1111C8.79497 10.3454 8.58172 10.7988 7.62971 11.4335V14.7169L11.8414 11.596C11.8414 11.596 13.0066 10.7194 13.0637 9.9373C13.0104 9.15896 11.8414 8.27861 11.8414 8.27861Z" fill="#2E51A4"/>
<g style="mix-blend-mode:multiply">
<path fill-rule="evenodd" clip-rule="evenodd" d="M15.933 4.6333C15.8134 10.2305 11.2387 14.731 5.61288 14.731C4.84505 14.731 4.0968 14.6472 3.37679 14.4882C4.81577 16.6076 7.24533 17.9999 10.0001 17.9999C14.4184 17.9999 18.0001 14.4182 18.0001 9.99995C18.0001 7.93489 17.2176 6.05257 15.933 4.6333Z" fill="url(#paint5_linear_101_505)" fill-opacity="0.5"/>
</g>
<g style="mix-blend-mode:soft-light">
<path fill-rule="evenodd" clip-rule="evenodd" d="M2.00224 9.90783C2.08783 6.26223 4.61215 3.22 8.00685 2.34949C4.92718 3.70077 2.63362 6.51224 2.00224 9.90783Z" fill="white" fill-opacity="0.65"/>
</g>
<defs>
<linearGradient id="paint0_linear_101_505" x1="36" y1="-6.13857e-06" x2="36" y2="20" gradientUnits="userSpaceOnUse">
<stop stop-color="#0079FF"/>
<stop offset="1" stop-color="#2E51A4"/>
</linearGradient>
<linearGradient id="paint1_linear_101_505" x1="9.99999" y1="2" x2="9.99999" y2="18" gradientUnits="userSpaceOnUse">
<stop stop-color="#D8D8D8"/>
<stop offset="1" stop-color="#8F8F8F"/>
</linearGradient>
<linearGradient id="paint2_linear_101_505" x1="4.4086" y1="3.97845" x2="15.0753" y2="15.9354" gradientUnits="userSpaceOnUse">
<stop stop-color="white"/>
<stop offset="1" stop-color="#EDEDED"/>
</linearGradient>
<linearGradient id="paint3_linear_101_505" x1="3.8925" y1="3.72058" x2="16.4516" y2="16.2797" gradientUnits="userSpaceOnUse">
<stop stop-color="#F8F8F8"/>
<stop offset="1" stop-color="#E8E8E8"/>
</linearGradient>
<linearGradient id="paint4_linear_101_505" x1="1.85204" y1="9.89377" x2="11.2808" y2="4.26409" gradientUnits="userSpaceOnUse">
<stop stop-color="#D8D8D8"/>
<stop offset="1" stop-color="#8F8F8F"/>
</linearGradient>
<linearGradient id="paint5_linear_101_505" x1="15.1614" y1="16.1935" x2="4.58063" y2="3.97838" gradientUnits="userSpaceOnUse">
<stop stop-color="#D8D8D8"/>
<stop offset="1" stop-color="#D8D8D8" stop-opacity="0"/>
</linearGradient>
</defs>
</svg>
