<svg width="12" height="12" viewBox="0 0 12 12" fill="none" xmlns="http://www.w3.org/2000/svg">
<path fill-rule="evenodd" clip-rule="evenodd" d="M5.51716 0.5H3.75C3.41848 0.5 3.10054 0.631696 2.86612 0.866117C2.6317 1.10054 2.5 1.41848 2.5 1.75V10.25C2.5 10.5815 2.6317 10.8995 2.86612 11.1339C3.10054 11.3683 3.41848 11.5 3.75 11.5H7.75C8.08152 11.5 8.39946 11.3683 8.63388 11.1339C8.8683 10.8995 9 10.5815 9 10.25V5.98909C8.69723 6.18293 8.36019 6.32795 8 6.41303V9H3.5V2H4.24908C4.50808 1.37893 4.95426 0.855439 5.51716 0.5ZM5 10.25C5 10.665 5.335 11 5.75 11C6.165 11 6.5 10.665 6.5 10.25C6.5 9.835 6.165 9.5 5.75 9.5C5.335 9.5 5 9.835 5 10.25Z" fill="#282828"/>
<path d="M5.1193 2.7C5.07314 2.87969 5.04986 3.06448 5.05 3.25C5.05 3.43975 5.0742 3.624 5.1193 3.8H5.9025C5.86542 3.43427 5.86542 3.06573 5.9025 2.7H5.1193ZM5.34425 2.15H5.9894C6.06255 1.81533 6.16815 1.51557 6.29768 1.26615C5.89842 1.45849 5.56623 1.76644 5.34425 2.15ZM9.3807 2.7H8.5975C8.63458 3.06573 8.63458 3.43427 8.5975 3.8H9.3807C9.47328 3.43918 9.47328 3.06082 9.3807 2.7ZM9.15575 2.15C8.93377 1.76644 8.60158 1.45849 8.20233 1.26615C8.33213 1.51557 8.43745 1.81533 8.5106 2.15H9.15575ZM6.4558 2.7C6.4352 2.88261 6.42491 3.06623 6.425 3.25C6.425 3.43837 6.43545 3.62263 6.4558 3.8H8.0442C8.08562 3.4345 8.08562 3.0655 8.0442 2.7H6.4558ZM6.55425 2.15H7.94575C7.8957 1.94328 7.82351 1.74256 7.73042 1.55132C7.55772 1.2062 7.37293 1.05 7.25 1.05C7.1268 1.05 6.94228 1.2062 6.76958 1.55132C6.68295 1.72513 6.61008 1.92725 6.55425 2.15ZM5.34425 4.35C5.56623 4.73356 5.89842 5.04151 6.29768 5.23385C6.16787 4.98443 6.06255 4.68468 5.9894 4.35H5.34425ZM9.15575 4.35H8.5106C8.43745 4.68468 8.33185 4.98443 8.20233 5.23385C8.60158 5.04151 8.93377 4.73356 9.15575 4.35ZM6.55425 4.35C6.61008 4.57275 6.68295 4.77488 6.76958 4.94868C6.94228 5.2938 7.12707 5.45 7.25 5.45C7.3732 5.45 7.55772 5.2938 7.73042 4.94868C7.81705 4.77488 7.88993 4.57275 7.94575 4.35H6.55425ZM7.25 6C5.73118 6 4.5 4.76883 4.5 3.25C4.5 1.73118 5.73118 0.5 7.25 0.5C8.76883 0.5 10 1.73118 10 3.25C10 4.76883 8.76883 6 7.25 6Z" fill="#282828"/>
</svg>
