<svg width="16" height="16" viewBox="0 0 16 16" fill="none" xmlns="http://www.w3.org/2000/svg">
<path d="M8 16C12.4183 16 16 12.4183 16 8C16 3.58172 12.4183 0 8 0C3.58172 0 0 3.58172 0 8C0 12.4183 3.58172 16 8 16Z" fill="#F8F8F8"/>
<path d="M7.9983 4.14075L9.18963 6.5546L11.8535 6.94164L9.92592 8.82059L10.381 11.4738L7.9983 10.221L5.61565 11.4738L6.07069 8.82059L4.14307 6.94164L6.80697 6.5546L7.9983 4.14075Z" fill="#E7A400"/>
<path d="M11.2904 6.94166L8.62658 6.55456L7.71202 4.71326L6.85321 6.55457L4.18933 6.94166L6.11692 8.82061L5.66186 11.4737L7.56887 10.2956L7.82478 10.3915C7.82523 10.3896 7.8246 10.3875 7.82512 10.3856C7.84973 10.3047 7.93342 10.2571 8.01557 10.2775C8.19613 10.3085 8.3676 10.379 8.51777 10.484C8.53975 10.5007 8.5578 10.522 8.57064 10.5465C8.59423 10.5565 8.61436 10.5732 8.62858 10.5946C8.64802 10.5863 8.66894 10.582 8.69009 10.5821C8.75544 10.5792 8.8138 10.6227 8.82985 10.6861C8.88156 10.6557 8.94645 10.6594 8.99442 10.6954C9.04239 10.7314 9.06405 10.7926 9.04935 10.8508L9.85904 11.1544L9.36284 8.82061L11.2904 6.94166Z" fill="url(#paint0_linear_101_1209)"/>
<path d="M6.80888 6.55457L4.14502 6.94165L6.07261 8.8206L5.61757 11.4737L6.30217 11.1138C6.29866 11.1084 6.29549 11.1028 6.29267 11.097L6.13943 11.1544L6.63565 8.82062L4.70806 6.94165L6.71011 6.57403L6.80888 6.55457Z" fill="white"/>
<path d="M10.3809 11.6168C10.3577 11.6168 10.3348 11.6112 10.3142 11.6003L7.99833 10.3828L5.68242 11.6003C5.6342 11.6257 5.57575 11.6215 5.53167 11.5895C5.48758 11.5575 5.46549 11.5032 5.4747 11.4495L5.91697 8.87067L4.0432 7.04415C4.0042 7.00613 3.99017 6.94925 4.00702 6.89745C4.02386 6.84564 4.06867 6.8079 4.12259 6.8001L6.71191 6.4238L7.87 4.07742C7.89676 4.03196 7.94557 4.00403 7.99833 4.00403C8.05109 4.00403 8.0999 4.03194 8.12666 4.07742L9.28475 6.4238L11.8741 6.8001C11.928 6.8079 11.9728 6.84564 11.9896 6.89745C12.0065 6.94925 11.9925 7.00613 11.9535 7.04415L10.0797 8.87069L10.522 11.4495C10.5291 11.4911 10.5175 11.5337 10.4903 11.566C10.4631 11.5982 10.4231 11.6168 10.3809 11.6168ZM7.99833 10.078C8.02156 10.078 8.04445 10.0836 8.06501 10.0945L10.1908 11.212L9.7849 8.84484C9.77693 8.79844 9.79229 8.75108 9.82599 8.7182L11.5459 7.04166L9.16916 6.69627C9.12253 6.68954 9.08221 6.66026 9.06139 6.61799L7.99833 4.46421L6.93528 6.61796C6.91446 6.66023 6.87415 6.68951 6.82751 6.69624L4.45081 7.04163L6.17068 8.71817C6.20437 8.75105 6.21975 8.79841 6.21178 8.84481L5.80586 11.212L7.93167 10.0945C7.95221 10.0836 7.9751 10.078 7.99833 10.078Z" fill="#494646"/>
<defs>
<linearGradient id="paint0_linear_101_1209" x1="7.13478" y1="5.63069" x2="10.3576" y2="11.1032" gradientUnits="userSpaceOnUse">
<stop stop-color="#EDA127"/>
<stop offset="1" stop-color="#FFE900"/>
</linearGradient>
</defs>
</svg>
