<svg width="20" height="20" viewBox="0 0 20 20" fill="none" xmlns="http://www.w3.org/2000/svg">
<g filter="url(#filter0_dd_101_1710)">
<path d="M17.75 9C17.75 13.2802 14.2802 16.75 10 16.75C5.71979 16.75 2.25 13.2802 2.25 9C2.25 4.71979 5.71979 1.25 10 1.25C14.2802 1.25 17.75 4.71979 17.75 9Z" fill="#F8F8F8" stroke="#8F8F8F" stroke-width="0.5"/>
<path d="M9.9983 5.14075L11.1896 7.5546L13.8535 7.94164L11.9259 9.82059L12.381 12.4738L9.9983 11.221L7.61565 12.4738L8.07069 9.82059L6.14307 7.94164L8.80697 7.5546L9.9983 5.14075Z" fill="#E7A400"/>
<path d="M13.2904 7.94166L10.6266 7.55456L9.71202 5.71326L8.85321 7.55457L6.18933 7.94166L8.11692 9.82061L7.66186 12.4737L9.56887 11.2956L9.82478 11.3915C9.82523 11.3896 9.8246 11.3875 9.82512 11.3856C9.84973 11.3047 9.93342 11.2571 10.0156 11.2775C10.1961 11.3085 10.3676 11.379 10.5178 11.484C10.5397 11.5007 10.5578 11.522 10.5706 11.5465C10.5942 11.5565 10.6144 11.5732 10.6286 11.5946C10.648 11.5863 10.6689 11.582 10.6901 11.5821C10.7554 11.5792 10.8138 11.6227 10.8298 11.6861C10.8816 11.6557 10.9464 11.6594 10.9944 11.6954C11.0424 11.7314 11.0641 11.7926 11.0494 11.8508L11.859 12.1544L11.3628 9.82061L13.2904 7.94166Z" fill="url(#paint0_linear_101_1710)"/>
<path d="M8.80888 7.55457L6.14502 7.94165L8.07261 9.8206L7.61757 12.4737L8.30217 12.1138C8.29866 12.1084 8.29549 12.1028 8.29267 12.097L8.13943 12.1544L8.63565 9.82062L6.70806 7.94165L8.71011 7.57403L8.80888 7.55457Z" fill="white"/>
<path d="M12.3809 12.6168C12.3577 12.6168 12.3348 12.6112 12.3142 12.6003L9.99833 11.3828L7.68242 12.6003C7.6342 12.6257 7.57575 12.6215 7.53167 12.5895C7.48758 12.5575 7.46549 12.5032 7.4747 12.4495L7.91697 9.87067L6.0432 8.04415C6.0042 8.00613 5.99017 7.94925 6.00702 7.89745C6.02386 7.84564 6.06867 7.8079 6.12259 7.8001L8.71191 7.4238L9.87 5.07742C9.89676 5.03196 9.94557 5.00403 9.99833 5.00403C10.0511 5.00403 10.0999 5.03194 10.1267 5.07742L11.2847 7.4238L13.8741 7.8001C13.928 7.8079 13.9728 7.84564 13.9896 7.89745C14.0065 7.94925 13.9925 8.00613 13.9535 8.04415L12.0797 9.87069L12.522 12.4495C12.5291 12.4911 12.5175 12.5337 12.4903 12.566C12.4631 12.5982 12.4231 12.6168 12.3809 12.6168ZM9.99833 11.078C10.0216 11.078 10.0445 11.0836 10.065 11.0945L12.1908 12.212L11.7849 9.84484C11.7769 9.79844 11.7923 9.75108 11.826 9.7182L13.5459 8.04166L11.1692 7.69627C11.1225 7.68954 11.0822 7.66026 11.0614 7.61799L9.99833 5.46421L8.93528 7.61796C8.91446 7.66023 8.87415 7.68951 8.82751 7.69624L6.45081 8.04163L8.17068 9.71817C8.20437 9.75105 8.21975 9.79841 8.21178 9.84481L7.80586 12.212L9.93167 11.0945C9.95221 11.0836 9.9751 11.078 9.99833 11.078Z" fill="#494646"/>
</g>
<defs>
<filter id="filter0_dd_101_1710" x="0" y="0" width="20" height="20" filterUnits="userSpaceOnUse" color-interpolation-filters="sRGB">
<feFlood flood-opacity="0" result="BackgroundImageFix"/>
<feColorMatrix in="SourceAlpha" type="matrix" values="0 0 0 0 0 0 0 0 0 0 0 0 0 0 0 0 0 0 127 0" result="hardAlpha"/>
<feOffset dy="1"/>
<feGaussianBlur stdDeviation="1"/>
<feColorMatrix type="matrix" values="0 0 0 0 0 0 0 0 0 0 0 0 0 0 0 0 0 0 0.25 0"/>
<feBlend mode="normal" in2="BackgroundImageFix" result="effect1_dropShadow_101_1710"/>
<feColorMatrix in="SourceAlpha" type="matrix" values="0 0 0 0 0 0 0 0 0 0 0 0 0 0 0 0 0 0 127 0" result="hardAlpha"/>
<feOffset dy="1"/>
<feGaussianBlur stdDeviation="0.5"/>
<feColorMatrix type="matrix" values="0 0 0 0 0 0 0 0 0 0 0 0 0 0 0 0 0 0 0.25 0"/>
<feBlend mode="normal" in2="effect1_dropShadow_101_1710" result="effect2_dropShadow_101_1710"/>
<feBlend mode="normal" in="SourceGraphic" in2="effect2_dropShadow_101_1710" result="shape"/>
</filter>
<linearGradient id="paint0_linear_101_1710" x1="9.13478" y1="6.63069" x2="12.3576" y2="12.1032" gradientUnits="userSpaceOnUse">
<stop stop-color="#EDA127"/>
<stop offset="1" stop-color="#FFE900"/>
</linearGradient>
</defs>
</svg>
