<svg width="24" height="24" viewBox="0 0 24 24" fill="none" xmlns="http://www.w3.org/2000/svg">
<circle cx="12" cy="12" r="12" fill="url(#paint0_linear_101:1413)"/>
<circle cx="11.7419" cy="11.9999" r="11.7419" fill="url(#paint1_linear_101:1413)"/>
<circle cx="12.0003" cy="12" r="9.67741" fill="#D8D8D8"/>
<circle cx="12.2581" cy="12.0003" r="9.41935" fill="url(#paint2_linear_101:1413)"/>
<path d="M15.6483 9.41792L9.33081 4.73657V9.66162C10.8445 10.6648 11.113 11.3732 11.1415 11.7019C11.1587 11.8266 11.1758 12.025 11.1358 12.1667C11.0787 12.518 10.7588 13.1981 9.33081 14.1503V19.0753L15.6483 14.394C15.6483 14.394 17.3962 13.0791 17.4819 11.9059C17.4019 10.7384 15.6483 9.41792 15.6483 9.41792Z" fill="url(#paint3_linear_101:1413)"/>
<path d="M14.7621 9.41792L8.44458 4.73657V9.66162C9.95826 10.6648 10.2267 11.3732 10.2553 11.7019C10.2724 11.8266 10.2896 12.025 10.2496 12.1667C10.1925 12.518 9.87258 13.1981 8.44458 14.1503V19.0753L14.7621 14.394C14.7621 14.394 16.5099 13.0791 16.5956 11.9059C16.5157 10.7384 14.7621 9.41792 14.7621 9.41792Z" fill="#2E51A4"/>
<g style="mix-blend-mode:multiply">
<path fill-rule="evenodd" clip-rule="evenodd" d="M20.8995 3.95007C20.7202 12.3459 13.8581 19.0968 5.41925 19.0968C4.26754 19.0968 3.14519 18.971 2.06519 18.7325C4.22367 21.9115 7.86796 24 12.0001 24C18.6275 24 24 18.6274 24 12C24 8.90243 22.8264 6.07898 20.8995 3.95007Z" fill="url(#paint4_linear_101:1413)" fill-opacity="0.5"/>
</g>
<g style="mix-blend-mode:soft-light">
<path fill-rule="evenodd" clip-rule="evenodd" d="M0.00341797 11.8623C0.131513 6.39348 3.91834 1.8297 9.01083 0.524048C4.39095 2.55099 0.950357 6.76854 0.00341797 11.8623Z" fill="white" fill-opacity="0.65"/>
</g>
<defs>
<linearGradient id="paint0_linear_101:1413" x1="12" y1="0" x2="12" y2="24" gradientUnits="userSpaceOnUse">
<stop stop-color="#D8D8D8"/>
<stop offset="1" stop-color="#8F8F8F"/>
</linearGradient>
<linearGradient id="paint1_linear_101:1413" x1="3.6129" y1="2.96761" x2="19.6129" y2="20.9031" gradientUnits="userSpaceOnUse">
<stop stop-color="white"/>
<stop offset="1" stop-color="#EDEDED"/>
</linearGradient>
<linearGradient id="paint2_linear_101:1413" x1="2.83875" y1="2.58093" x2="21.6774" y2="21.4196" gradientUnits="userSpaceOnUse">
<stop stop-color="#F8F8F8"/>
<stop offset="1" stop-color="#E8E8E8"/>
</linearGradient>
<linearGradient id="paint3_linear_101:1413" x1="-0.221844" y1="11.8407" x2="13.9213" y2="3.39613" gradientUnits="userSpaceOnUse">
<stop stop-color="#D8D8D8"/>
<stop offset="1" stop-color="#8F8F8F"/>
</linearGradient>
<linearGradient id="paint4_linear_101:1413" x1="19.7421" y1="21.2903" x2="3.87095" y2="2.9677" gradientUnits="userSpaceOnUse">
<stop stop-color="#D8D8D8"/>
<stop offset="1" stop-color="#D8D8D8" stop-opacity="0"/>
</linearGradient>
</defs>
</svg>
