<svg width="105" height="105" viewBox="0 0 105 105" fill="none" xmlns="http://www.w3.org/2000/svg">
<g id="svg_profile-user">
<path id="Shape" fill-rule="evenodd" clip-rule="evenodd" d="M52.5 0C23.5081 0 0 23.5045 0 52.5C0 81.4955 23.5058 105 52.5 105C81.4965 105 105 81.4955 105 52.5C105 23.5045 81.4965 0 52.5 0ZM52.5 15.6981C62.0933 15.6981 69.867 23.4745 69.867 33.0636C69.867 42.655 62.0933 50.4291 52.5 50.4291C42.9114 50.4291 35.1376 42.655 35.1376 33.0636C35.1376 23.4745 42.9114 15.6981 52.5 15.6981ZM27.3984 82.0213C34.1575 87.789 42.9206 91.2737 52.4885 91.2737C62.0587 91.2737 70.824 87.789 77.5808 82.019C79.2297 80.6145 80.1752 78.5597 80.1752 76.3966C80.1752 66.6714 72.3345 58.8881 62.6052 58.8881H42.3994C32.6724 58.8881 24.8018 66.6714 24.8018 76.3966C24.8018 78.5574 25.7519 80.6168 27.3984 82.0213Z" fill="white"/>
</g>
</svg>
