<svg width="116" height="116" viewBox="0 0 116 116" fill="none" xmlns="http://www.w3.org/2000/svg">
<path fill-rule="evenodd" clip-rule="evenodd" d="M99.0122 16.9878C76.3618 -5.6626 39.6382 -5.6626 16.9878 16.9878C-5.6626 39.6382 -5.6626 76.3618 16.9878 99.0122C39.6382 121.663 76.3618 121.663 99.0122 99.0122C121.663 76.3618 121.663 39.6382 99.0122 16.9878ZM80.3703 35.6297C82.4294 37.6888 82.4294 41.0273 80.3703 43.0865L65.4568 58L80.3703 72.9135C82.4294 74.9726 82.4294 78.3112 80.3703 80.3703C78.3112 82.4294 74.9726 82.4294 72.9135 80.3703L58 65.4568L43.0865 80.3703C41.0274 82.4294 37.6888 82.4294 35.6297 80.3703C33.5706 78.3112 33.5706 74.9726 35.6297 72.9135L50.5432 58L35.6297 43.0865C33.5706 41.0273 33.5706 37.6888 35.6297 35.6297C37.6888 33.5706 41.0273 33.5706 43.0865 35.6297L58 50.5432L72.9135 35.6297C74.9726 33.5706 78.3112 33.5706 80.3703 35.6297Z" fill="#FA2627"/>
</svg>
