<svg width="144" height="137" viewBox="0 0 144 137" fill="none" xmlns="http://www.w3.org/2000/svg">
<path d="M68.4297 0C30.6907 0 0 30.7222 0 68.5C0 106.278 30.6907 137 68.4297 137C106.169 137 136.859 106.278 136.859 68.5C136.859 30.7222 106.169 0 68.4297 0Z" fill="url(#paint0_linear_101_533)"/>
<mask id="mask0_101_533" style="mask-type:alpha" maskUnits="userSpaceOnUse" x="0" y="0" width="137" height="137">
<path d="M68.4297 0C30.6907 0 0 30.7223 0 68.5C0 106.278 30.6907 137 68.4297 137C106.169 137 136.859 106.278 136.859 68.5C136.859 30.7223 106.169 0 68.4297 0Z" fill="url(#paint1_linear_101_533)"/>
</mask>
<g mask="url(#mask0_101_533)">
<path d="M38.0826 90.5391C20.4694 89.586 14.4793 97.8854 7.1405 103.048C56.5289 170.952 133.289 134.022 139.24 70.2869C140.886 52.6538 89.8512 56.5869 82.7107 76.2434C78.0692 89.0209 60.0992 91.7304 38.0826 90.5391Z" fill="white" fill-opacity="0.7"/>
</g>
<path d="M98.1516 32.5917C96.6832 31.7723 95.0682 31.2513 93.3988 31.0583C91.7295 30.8653 90.0386 31.0042 88.4228 31.4671C86.8071 31.93 85.2981 32.7077 83.9823 33.7558C82.6665 34.804 81.5697 36.1019 80.7544 37.5755L57.0061 80.4346L43.4146 66.8046C42.2346 65.5794 40.8231 64.6021 39.2624 63.9298C37.7017 63.2575 36.0231 62.9036 34.3246 62.8888C32.6261 62.874 30.9417 63.1986 29.3696 63.8436C27.7975 64.4886 26.3692 65.4411 25.1682 66.6456C23.9671 67.8501 23.0173 69.2824 22.3741 70.8589C21.7309 72.4354 21.4072 74.1247 21.422 75.828C21.4367 77.5313 21.7896 79.2146 22.46 80.7797C23.1304 82.3448 24.105 83.7603 25.3267 84.9437L50.9107 110.6C53.3284 113.031 56.5904 114.365 59.9547 114.365L61.7264 114.237C63.687 113.962 65.5573 113.234 67.1899 112.111C68.8226 110.988 70.173 109.5 71.1349 107.765L103.115 50.0381C103.931 48.5658 104.451 46.9465 104.643 45.2729C104.836 43.5993 104.697 41.9041 104.236 40.284C103.776 38.664 103.001 37.1508 101.957 35.8309C100.913 34.5111 99.6198 33.4104 98.1516 32.5917Z" fill="url(#paint2_linear_101_533)"/>
<rect y="13.1044" width="42.843" height="11.913" rx="5.95652" fill="#CFE7F1"/>
<rect x="24.9917" y="29.7826" width="26.1818" height="7.14783" rx="3.57391" fill="#A6D1DF"/>
<rect x="101.157" y="88.1565" width="42.843" height="11.913" rx="5.95652" fill="#CFE7F1"/>
<rect x="90.4463" y="104.835" width="26.1818" height="7.14783" rx="3.57391" fill="#A6D1DF"/>
<defs>
<linearGradient id="paint0_linear_101_533" x1="0" y1="0" x2="137" y2="136.859" gradientUnits="userSpaceOnUse">
<stop offset="0.116667" stop-color="#F8FDFF"/>
<stop offset="0.377083" stop-color="#EAFAFF"/>
<stop offset="0.814583" stop-color="#CEEDF8"/>
</linearGradient>
<linearGradient id="paint1_linear_101_533" x1="0" y1="0" x2="137" y2="136.859" gradientUnits="userSpaceOnUse">
<stop offset="0.116667" stop-color="#F8FDFF"/>
<stop offset="0.377083" stop-color="#EAFAFF"/>
<stop offset="0.814583" stop-color="#CEEDF8"/>
</linearGradient>
<linearGradient id="paint2_linear_101_533" x1="45.8926" y1="30.9739" x2="77.1885" y2="114.344" gradientUnits="userSpaceOnUse">
<stop offset="0.163542" stop-color="#7EF6D3"/>
<stop offset="0.538542" stop-color="#05B5F5"/>
<stop offset="0.939583" stop-color="#0079FF"/>
</linearGradient>
</defs>
</svg>
