<svg width="24" height="24" viewBox="0 0 24 24" fill="none" xmlns="http://www.w3.org/2000/svg">
<mask id="mask0_101_2607" style="mask-type:alpha" maskUnits="userSpaceOnUse" x="0" y="0" width="24" height="24">
<rect width="24" height="24" fill="#C4C4C4"/>
</mask>
<g mask="url(#mask0_101_2607)">
<path fill-rule="evenodd" clip-rule="evenodd" d="M11.9999 6C17.4371 6 21.6942 11.4037 21.8729 11.6338C22.0424 11.8519 22.0424 12.1481 21.8729 12.3664C21.6942 12.5963 17.4371 18 11.9999 18C6.56275 18 2.30539 12.5963 2.12691 12.3662C1.9577 12.1479 1.9577 11.8519 2.12691 11.6336C2.30539 11.4037 6.56275 6 11.9999 6ZM12 8C9.79444 8 8 9.79444 8 12C8 14.2056 9.79444 16 12 16C14.2056 16 16 14.2056 16 12C16 9.79444 14.2056 8 12 8ZM12 14.6666C10.5295 14.6666 9.33334 13.4704 9.33334 12C9.33334 10.5296 10.5296 9.33337 12 9.33337C13.4704 9.33337 14.6666 10.5296 14.6666 12C14.6666 13.4704 13.4704 14.6666 12 14.6666Z" fill="white"/>
</g>
</svg>
