<svg width="161" height="30" viewBox="0 0 161 30" fill="none" xmlns="http://www.w3.org/2000/svg">
<path d="M117.19 4.87471C116.406 4.1657 115.404 3.63394 114.098 3.27944C112.792 2.96924 111.18 2.79199 109.221 2.79199H99.2043C97.2882 2.79199 95.6769 2.96924 94.3704 3.27944C93.0639 3.58963 92.0623 4.12139 91.2784 4.87471C90.4945 5.58372 89.972 6.55861 89.6236 7.71075C89.3187 8.90721 89.1445 10.3252 89.1445 12.0091V20.7831C89.1445 22.467 89.3187 23.9294 89.6236 25.0815C89.9284 26.2337 90.4945 27.2085 91.2784 27.9176C92.0623 28.6266 93.0639 29.1583 94.3704 29.5128C95.6769 29.823 97.2882 30.0003 99.2043 30.0003H109.221C111.18 30.0003 112.792 29.823 114.098 29.5128C115.404 29.2026 116.406 28.6709 117.19 27.9176C117.974 27.2085 118.496 26.2337 118.845 25.0815C119.15 23.9294 119.324 22.467 119.324 20.7831V12.0091C119.324 10.3252 119.15 8.90721 118.845 7.71075C118.496 6.55861 117.974 5.58372 117.19 4.87471ZM113.445 20.5616C113.445 21.4478 113.358 22.1568 113.227 22.6886C113.096 23.2647 112.835 23.7078 112.53 24.018C112.182 24.3282 111.746 24.5498 111.137 24.6827C110.571 24.8156 109.83 24.8599 109.003 24.8599H99.5091C98.5946 24.8599 97.8107 24.8156 97.2446 24.6827C96.6785 24.5498 96.1994 24.3282 95.8511 24.018C95.5027 23.7078 95.2849 23.2647 95.1543 22.6886C95.0236 22.1125 94.9801 21.4035 94.9801 20.5616V12.275C94.9801 11.4331 95.0236 10.724 95.1543 10.1923C95.2849 9.66053 95.5027 9.2174 95.8511 8.86289C96.1994 8.50839 96.6349 8.28682 97.2446 8.15388C97.8107 8.02094 98.5946 7.97663 99.5091 7.97663H109.003C109.874 7.97663 110.571 8.02094 111.137 8.15388C111.703 8.28682 112.182 8.50839 112.53 8.86289C112.879 9.2174 113.096 9.66053 113.227 10.1923C113.358 10.724 113.445 11.4331 113.445 12.275V20.5616Z" fill="white"/>
<path d="M19.4663 23.3533L7.05491 2.79199H0L15.0243 27.4744C15.5034 28.2721 16.0695 28.8924 16.6792 29.3356C17.2889 29.7787 18.1599 30.0003 19.3357 30.0003C20.4679 30.0003 21.3825 29.7787 21.9922 29.3356C22.6018 28.8924 23.168 28.2721 23.647 27.4744L38.7585 2.79199H31.7906L19.4663 23.3533Z" fill="white"/>
<path d="M46.2486 2.79199H40.4131V30.0003H46.2486V2.79199Z" fill="white"/>
<path d="M75.4699 15.4656C74.8166 14.8895 73.9892 14.4907 72.9876 14.2691C71.986 14.0032 70.7231 13.8703 69.2859 13.8703H57.0487C56.0906 13.8703 55.4374 13.693 55.0455 13.3385C54.6535 12.984 54.4793 12.3636 54.4793 11.5217V10.6354C54.4793 9.52759 54.6971 8.81858 55.1326 8.46408C55.5681 8.10957 56.2213 7.93232 57.0923 7.93232H77.2554V2.79199H56.5261C55.2197 2.79199 54.0874 2.92493 53.1293 3.19081C52.1713 3.45669 51.4309 3.89982 50.8212 4.52021C50.2116 5.14059 49.8196 5.89391 49.5148 6.91312C49.2535 7.888 49.0793 9.08446 49.0793 10.4582V11.8319C49.0793 12.984 49.1664 14.0032 49.3841 14.8895C49.6019 15.7757 49.9938 16.4848 50.5599 17.0608C51.1261 17.6369 51.8664 18.08 52.8245 18.3459C53.7826 18.6118 55.0019 18.7447 56.439 18.7447H68.894C69.8956 18.7447 70.6795 18.922 71.115 19.2765C71.594 19.631 71.8118 20.2514 71.8118 21.0933V22.5557C71.8118 23.4862 71.594 24.1066 71.115 24.4168C70.636 24.727 69.8956 24.8599 68.8505 24.8599H48.9922V30.0003H69.1553C70.5924 30.0003 71.8553 29.8673 72.8569 29.6015C73.8586 29.3356 74.686 28.9368 75.3392 28.3607C75.9925 27.7846 76.4279 27.0756 76.7328 26.1893C76.9941 25.3031 77.1683 24.1952 77.1683 22.9545V20.7831C77.1683 19.5424 77.0376 18.5232 76.7328 17.6369C76.5586 16.7506 76.0796 16.0416 75.4699 15.4656Z" fill="white"/>
<path d="M85.8346 2.79199H79.999V30.0003H85.8346V2.79199Z" fill="white"/>
<path d="M128.339 3.76688C128.077 3.501 127.729 3.27944 127.293 3.05787C126.858 2.88062 126.335 2.79199 125.682 2.79199C124.768 2.79199 124.071 2.96924 123.505 3.36806C122.939 3.76688 122.677 4.38727 122.677 5.1849V29.9559H127.947V10.9013L146.586 28.7595C147.021 29.2026 147.5 29.5128 148.023 29.6901C148.545 29.8673 149.111 29.9559 149.678 29.9559C150.548 29.9559 151.202 29.7787 151.724 29.4242C152.247 29.0697 152.595 28.2721 152.508 27.2085L128.339 3.76688Z" fill="white"/>
<path d="M152.552 7.93205V2.43722C152.552 1.06352 151.463 0 150.156 0C148.806 0 147.761 1.10783 147.761 2.43722V7.93205V10.3693H150.592C151.681 10.3693 152.595 9.48301 152.595 8.33087V7.93205H152.552Z" fill="url(#paint0_linear_691_2299)"/>
<path d="M147.718 12.851H141.621C140.271 12.851 139.226 11.7432 139.226 10.4138C139.226 9.04008 140.314 7.97656 141.621 7.97656H147.718H148.153C149.242 7.97656 150.156 8.86283 150.156 10.015V12.8953L147.718 12.851Z" fill="url(#paint1_linear_691_2299)"/>
<path d="M152.552 12.8507V18.4341C152.552 19.8078 151.463 20.8714 150.156 20.8714C148.806 20.8714 147.761 19.7635 147.761 18.4341V12.8507V12.4075C147.761 11.2997 148.632 10.3691 149.764 10.3691H152.595V12.4075V12.8507H152.552Z" fill="url(#paint2_linear_691_2299)"/>
<path d="M158.561 7.93164H152.508V8.37477C152.508 9.4826 151.637 10.4132 150.505 10.4132H150.069V10.8563C150.069 11.9641 150.94 12.8947 152.073 12.8947H152.508H158.561C159.911 12.8947 160.957 11.7869 160.957 10.4575C161 9.03947 159.911 7.93164 158.561 7.93164Z" fill="url(#paint3_linear_691_2299)"/>
<defs>
<linearGradient id="paint0_linear_691_2299" x1="150.128" y1="10.2892" x2="150.128" y2="-0.0352871" gradientUnits="userSpaceOnUse">
<stop offset="0.0033051" stop-color="#F8B908"/>
<stop offset="1" stop-color="#FFD363"/>
</linearGradient>
<linearGradient id="paint1_linear_691_2299" x1="140.239" y1="7.50427" x2="150.495" y2="13.7574" gradientUnits="userSpaceOnUse">
<stop offset="0.00224162" stop-color="#3FD143"/>
<stop offset="1" stop-color="#198F43"/>
</linearGradient>
<linearGradient id="paint2_linear_691_2299" x1="150.128" y1="8.02781" x2="150.128" y2="22.4579" gradientUnits="userSpaceOnUse">
<stop offset="0.00223001" stop-color="#DC2A29"/>
<stop offset="1" stop-color="#FD1931"/>
</linearGradient>
<linearGradient id="paint3_linear_691_2299" x1="150.129" y1="10.3912" x2="160.995" y2="10.3912" gradientUnits="userSpaceOnUse">
<stop offset="0.0033051" stop-color="#004DBE"/>
<stop offset="1" stop-color="#007AE0"/>
</linearGradient>
</defs>
</svg>
